<?xml version="1.0" encoding="utf-8"?>
<!-- Generator: Adobe Illustrator 28.0.0, SVG Export Plug-In . SVG Version: 6.00 Build 0)  -->
<svg version="1.1" id="Layer_1" xmlns="http://www.w3.org/2000/svg" xmlns:xlink="http://www.w3.org/1999/xlink" x="0px" y="0px"
	 viewBox="0 0 770 330" style="enable-background:new 0 0 770 330;" xml:space="preserve">
<style type="text/css">
	.st0{fill:#FFB603;}
</style>
<g id="ID_00000140013072036452056270000010628317646747423630_">
	<path class="st0" d="M513.35,319.71c-31.25,0-63.62,0-96.98,0c10.11-11.5,9.84-24.95,9.82-38.32c-0.06-32.8-0.14-65.59-0.26-98.39
		c-0.01-1.82-0.3-3.66-0.63-5.46c-1.41-7.66-4.43-14.2-12.89-16.07c-8.31-1.84-17.66,2.36-22.51,9.89
		c-5.36,8.3-6.91,17.78-6.99,27.31c-0.26,30.12-0.23,60.24,0.03,90.36c0.09,10.76,1.48,21.42,9.76,30.46c-33.04,0-65.49,0-98.35,0
		c0.56-0.9,1.04-1.82,1.66-2.63c5.41-7.11,7.3-15.43,7.32-24.03c0.15-51.37,0.15-102.75,0-154.12c-0.03-9.8-2.33-19.17-9.52-27.59
		c2.51-0.12,4.24-0.26,5.98-0.27c21.08-0.02,42.17-0.01,63.25-0.01c13.39,0,18.7,4.93,19.59,18.39c0.27,4.17,0.05,8.37,0.22,12.55
		c0.08,1.93,0.55,3.85,0.86,5.89c5.44,0.05,7.64-3.75,10.31-6.81c5.82-6.66,10.85-14.25,17.56-19.84
		c19.33-16.08,41.48-19.31,64.76-10.25c13,5.06,19.73,16.47,23.91,29.33c4.07,12.55,4.89,25.56,4.94,38.62
		c0.14,34.47,0.11,68.94,0.24,103.42c0.02,5.68-0.18,11.52,1.05,16.99C508.05,306.13,510.98,312.81,513.35,319.71z"/>
	<path class="st0" d="M764.28,319.81c-26.12,0-51.03,0.1-75.94-0.07c-5.97-0.04-10.82-4.21-12.11-10.86
		c-2.52-12.96-8.82-15.75-19.56-5.84c-10.73,9.89-22.65,17.46-37.29,20.34c-30.49,5.98-54.42-7.4-64.28-29.45
		c-7.3-16.34-5.36-33.04-0.11-49.44c7.12-22.27,21.78-38.76,41.04-51.45c19.63-12.93,41.24-20.92,64.09-25.91
		c11.9-2.6,14.66-6.88,14.19-17.84c-1.17-27.35-23.46-30.7-40.95-22.84c-12.31,5.53-20.58,15.76-28.81,25.91
		c-6.21,7.65-12.05,15.61-18.36,23.18c-2.31,2.77-5.22,5.26-8.32,7.09c-6.45,3.79-13.86,0.04-14.17-7.43
		c-0.45-10.69-0.37-21.41-0.01-32.11c0.26-7.61,5.12-12.79,10.85-17.22c14.07-10.89,30.51-15.46,47.74-17.76
		c17.63-2.36,35.33-2.96,52.97-0.09c43.64,7.09,75.48,38.48,77.85,80.4c1.78,31.52,0.82,63.19,1.13,94.79
		c0.05,4.84,0.14,9.7,0.57,14.52C755.51,305.64,757.83,313.03,764.28,319.81z M673.97,229.26c0,0-0.01,0-0.01,0
		c0-11.02,0.35-22.06-0.11-33.06c-0.36-8.46-5.17-11.65-13.51-10.43c-7.79,1.14-14.16,4.97-19.59,10.3
		c-14.73,14.49-19.35,32.81-18.32,52.67c0.41,7.85,1.95,16,4.82,23.29c4.05,10.29,12.78,15.02,23.95,14.65
		c9.93-0.33,17.03-6.02,20.78-16.66c0.88-2.5,1.86-5.13,1.91-7.72C674.09,251.28,673.97,240.27,673.97,229.26z"/>
	<path class="st0" d="M127.22,308.69c-3.03,3.1-5.64,6.85-9.19,9.17c-8.96,5.88-19.22,7.53-29.75,6.75
		c-10-0.74-19.86-2.26-28.91-7.19c-16.66-9.08-24.69-24.07-27.86-41.83c-1.93-10.8-2.9-21.9-3.03-32.87
		c-0.39-33.3-0.13-66.6-0.18-99.9c-0.02-13.8-3.16-16.9-16.72-16.92c-1.82,0-3.64,0-5.87,0c0-5.1,0-9.85,0-14.68
		c22.9-4.45,39.02-20.13,56.04-34.3C71.27,69,80.45,60.69,89.97,52.8c3.13-2.6,6.75-5.96,11.2-3.72c4.31,2.17,3.34,6.87,3.35,10.82
		c0.04,16.72,0.02,33.45,0.02,50.85c8.5,0,16.75,0,25.26,0c0,5.28,0,9.89,0,15c-8.35,0-16.48,0-24.93,0
		c-0.13,1.93-0.31,3.37-0.31,4.82c-0.02,44.18-0.2,88.35,0.1,132.53c0.06,8.93,1.08,18.06,3.19,26.72
		c2.22,9.12,7.55,16.45,18.32,17.33C126.52,307.66,126.87,308.17,127.22,308.69z"/>
	<path class="st0" d="M262.38,319.73c-33.27,0-65.63,0-97.12,0c2.33-6.74,5.23-13.55,6.95-20.64c1.16-4.78,0.89-9.96,0.9-14.97
		c0.04-39.31-0.01-78.61-0.04-117.92c0-1.34-0.03-2.68-0.14-4.01c-0.59-7.31-3.05-13.26-10.78-15.81c-1.3-0.43-2.94-2.08-3.04-3.28
		c-0.11-1.24,1.14-3.29,2.34-3.87c24.15-11.64,47.77-24.55,73.85-31.68c2.4-0.66,4.89-1.21,7.37-1.36c6.33-0.39,9.28,2.39,9.56,8.74
		c0.11,2.51,0.11,5.02,0.11,7.53c0.01,52.86-0.02,105.71,0.04,158.57c0.01,6.01,0.31,12.04,0.92,18.02
		C254.06,306.48,256.73,313.27,262.38,319.73z"/>
	<path class="st0" d="M226.25,61.33c7.83,11.37,8.87,17.65,4.22,23.38c-4.41,5.43-13.53,7.56-20.62,4.82
		c-7.72-2.98-10.27-9.09-9.29-23.18c-4.69,6.48-8.66,13.64-17.96,10.71c-6.57-2.07-11.48-9.52-11.82-17.14
		c-0.49-10.99,6.87-14.52,16.7-16.21c-11.12-4.56-14.24-8.24-13.54-15.27c0.72-7.32,7.73-15.43,14.57-16.87
		c7.16-1.5,10.6,0.86,16.59,12c1.53-10.88,5.32-19.08,17.53-18.31c7.37,0.46,13.26,3.64,16.19,10.7c2.36,5.68,0,10.23-9.33,18.8
		c10.72-1.96,20.71-2.82,25.04,9.15c2.43,6.73,1.31,13.28-4,18.53C245.4,67.49,239.96,67.22,226.25,61.33z M220.32,46.98
		c0.08-5.99-4.26-10.54-10.16-10.65c-5.91-0.11-10.61,4.33-10.76,10.17c-0.15,5.85,4.35,10.5,10.27,10.62
		C215.66,57.25,220.24,52.88,220.32,46.98z"/>
</g>
</svg>
